<?xml version="1.0" standalone="no"?>
<!DOCTYPE svg PUBLIC "-//W3C//DTD SVG 20010904//EN" "http://www.w3.org/TR/2001/REC-SVG-20010904/DTD/svg10.dtd">
<svg xmlns="http://www.w3.org/2000/svg" version="1.0" width="466.000000pt" height="285.000000pt" viewBox="0 0 466.000000 285.000000" preserveAspectRatio="xMidYMid meet">
<metadata>
Created by potrace 1.16, written by Peter Selinger 2001-2019
<meta name="Producer" content="Online-Convert"/></metadata>
<g transform="translate(0.000000,285.000000) scale(0.100000,-0.100000)" fill="#000000" stroke="none">
<path d="M1227 2233 c-3 -5 -4 -45 -2 -91 2 -68 6 -85 21 -97 11 -7 106 -69 212 -137 283 -181 358 -228 559 -355 101 -63 185 -118 187 -121 2 -4 6 -191 7 -416 l4 -409 31 -23 c17 -13 38 -24 47 -24 22 0 67 21 67 32 0 5 5 6 10 3 6 -3 11 -5 12 -3 1 2 5 192 8 422 l5 420 150 94 c83 52 249 158 370 235 121 77 270 172 330 210 133 84 127 79 131 114 6 43 -7 153 -18 153 -12 0 -116 -65 -798 -498 -135 -86 -252 -156 -260 -156 -8 0 -202 119 -430 263 -228 145 -460 292 -516 327 -99 63 -118 71 -127 57z"/>
<path d="M567 1913 c-4 -3 -7 -46 -7 -94 0 -95 -2 -90 72 -134 10 -5 79 -50 155 -99 76 -49 184 -119 241 -155 57 -36 156 -100 220 -141 64 -42 160 -102 213 -135 l96 -60 1 -145 c0 -80 1 -148 1 -152 1 -13 29 -9 45 7 8 8 18 15 23 15 4 0 28 14 54 32 40 27 46 36 44 62 -2 17 -4 87 -4 156 l-2 125 -57 37 c-31 20 -187 119 -347 220 -159 102 -374 238 -477 304 -229 146 -263 166 -271 157z"/>
<path d="M3705 1719 c-355 -226 -804 -511 -818 -521 -15 -9 -9 -308 6 -327 7 -8 26 -20 42 -27 17 -7 41 -22 54 -33 24 -21 51 -28 52 -13 0 4 1 72 2 150 3 167 -15 138 161 249 116 73 265 168 500 319 77 49 183 116 235 149 l96 61 0 89 c0 72 -3 90 -15 92 -8 2 -150 -83 -315 -188z"/>
<path d="M1220 1762 c0 -72 3 -92 18 -104 9 -8 158 -104 330 -213 276 -175 312 -201 312 -223 0 -14 2 -109 3 -210 4 -181 4 -185 28 -203 13 -10 28 -19 32 -19 5 0 15 -6 22 -12 32 -29 43 -36 63 -42 l22 -7 0 306 0 306 -127 82 c-246 159 -613 392 -633 402 -11 5 -20 13 -20 17 0 5 -11 8 -25 8 -25 0 -25 -1 -25 -88z"/>
<path d="M2962 1606 c-211 -135 -390 -250 -398 -257 -12 -9 -14 -64 -14 -315 0 -167 3 -304 6 -304 6 0 62 30 79 43 5 4 26 18 45 30 l35 23 3 211 2 211 263 166 c144 91 291 185 327 208 l65 43 0 90 c0 72 -3 90 -15 92 -8 2 -187 -107 -398 -241z"/>
<path d="M1226 1102 c-7 -11 3 -514 10 -521 2 -3 17 3 32 12 15 10 48 30 74 45 l48 27 0 176 0 176 -75 47 c-82 50 -81 50 -89 38z"/>
<path d="M3283 1063 l-73 -46 0 -172 0 -172 55 -37 c30 -20 59 -36 65 -36 5 0 10 -4 10 -8 0 -22 29 -6 32 17 8 64 2 494 -7 497 -5 1 -43 -18 -82 -43z"/>
</g>
</svg>
